<?xml version="1.0" standalone="no"?>
<!DOCTYPE svg PUBLIC "-//W3C//DTD SVG 20010904//EN"
 "http://www.w3.org/TR/2001/REC-SVG-20010904/DTD/svg10.dtd">
<svg version="1.0" xmlns="http://www.w3.org/2000/svg"
 width="576.000000pt" height="576.000000pt" viewBox="0 0 576.000000 576.000000"
 preserveAspectRatio="xMidYMid meet">
<metadata>
Created by potrace 1.14, written by Peter Selinger 2001-2017
</metadata>
<g transform="translate(0.000000,576.000000) scale(0.100000,-0.100000)"
fill="#000000" stroke="none">
<path d="M1765 4678 c-105 -12 -234 -44 -256 -64 -27 -25 -95 -171 -121 -259
-20 -68 -23 -103 -23 -235 0 -162 16 -253 63 -358 l19 -43 32 50 c78 121 234
227 392 265 162 39 383 40 560 1 169 -38 336 -148 425 -283 l38 -56 20 29 c96
132 163 192 282 250 243 119 646 120 882 1 97 -49 164 -106 221 -186 l49 -71
20 54 c86 230 90 445 11 657 -26 71 -76 164 -98 184 -24 22 -157 53 -286 67
-503 53 -907 -238 -1068 -771 -30 -99 -36 -111 -42 -85 -75 358 -270 634 -540
765 -107 52 -161 68 -274 85 -106 16 -185 17 -306 3z"/>
<path d="M2112 3990 c-41 -10 -63 -29 -107 -96 -112 -168 -125 -386 -34 -567
37 -72 89 -151 96 -144 2 3 11 31 20 63 56 215 212 334 437 334 142 0 266 -43
335 -114 l34 -35 44 40 c79 73 188 109 329 109 152 0 271 -49 349 -145 42 -50
92 -158 101 -216 l7 -42 28 34 c16 19 47 70 69 114 95 185 85 390 -26 560 -64
98 -97 114 -236 115 -202 0 -397 -91 -515 -243 -67 -86 -81 -109 -119 -202
-18 -44 -33 -74 -34 -67 0 8 -12 44 -27 80 -85 215 -265 373 -472 417 -76 16
-222 19 -279 5z"/>
<path d="M2877 3081 c-9 -21 -40 -76 -68 -122 -140 -231 -166 -344 -111 -469
l21 -45 0 40 c2 71 28 143 89 242 33 54 66 111 74 126 l14 28 54 -93 c111
-193 111 -193 117 -276 l6 -77 23 50 c17 37 23 69 23 126 1 104 -20 163 -116
322 -29 48 -64 110 -78 137 -14 28 -27 50 -28 50 -2 0 -11 -17 -20 -39z"/>
<path d="M2266 2590 c10 -14 23 -28 28 -31 5 -4 5 -12 1 -19 -5 -8 -4 -11 3
-6 11 6 27 -10 27 -29 0 -5 5 -10 12 -10 7 0 18 -7 25 -15 11 -12 11 -12 -4
-1 -15 11 -19 11 -24 -3 -3 -9 -10 -14 -15 -11 -4 3 -15 -7 -23 -22 -10 -20
-16 -24 -19 -13 -14 41 -16 42 -16 5 0 -22 -4 -69 -9 -105 -5 -36 -7 -68 -5
-72 2 -5 -2 -8 -10 -8 -8 0 -18 -7 -21 -16 -3 -8 -11 -12 -17 -8 -8 4 -7 9 2
15 9 5 0 7 -23 6 -20 -1 -34 -4 -31 -7 4 -5 9 -6 34 -9 6 0 8 -8 5 -17 -4 -11
38 -61 142 -168 209 -215 321 -356 420 -528 46 -79 60 -108 103 -201 l19 -42
0 50 c0 96 -28 293 -62 435 -45 188 -106 341 -182 460 -42 65 -224 265 -233
257 -2 -2 -36 28 -75 67 -39 39 -63 60 -52 46z"/>
<path d="M1716 2349 c38 -42 71 -75 74 -72 2 2 -29 36 -70 76 l-73 72 69 -76z"/>
<path d="M1800 2260 c0 -5 9 -14 20 -20 11 -6 20 -9 20 -8 0 2 -9 11 -20 21
-11 9 -20 13 -20 7z"/>
<path d="M1850 2222 c0 -7 4 -12 9 -12 5 0 7 -9 4 -20 -3 -11 0 -27 7 -35 18
-22 3 -18 -20 5 l-21 21 -26 -21 c-14 -11 -32 -20 -39 -20 -8 0 -14 -7 -14
-15 0 -8 -4 -15 -10 -15 -5 0 -10 -21 -10 -46 0 -28 -4 -43 -10 -39 -6 4 -8
11 -5 16 3 5 -1 6 -9 3 -16 -6 -30 -34 -21 -42 3 -3 5 0 5 6 0 7 4 12 10 12 6
0 6 -9 0 -26 -6 -15 -6 -23 -1 -19 6 3 14 -3 20 -12 6 -10 11 -13 11 -8 0 6
-6 17 -12 25 -11 12 -10 12 4 1 10 -7 20 -21 23 -31 5 -16 35 -31 51 -27 3 1
10 -6 15 -16 6 -9 14 -15 20 -12 5 4 12 -1 15 -9 3 -9 10 -16 16 -16 5 0 29
-14 54 -30 24 -17 44 -27 44 -23 0 4 6 1 13 -7 7 -8 71 -54 142 -101 367 -242
556 -451 691 -763 41 -95 54 -97 34 -7 -49 227 -191 507 -360 706 -87 102
-254 265 -395 384 -104 87 -123 104 -202 175 -18 17 -33 24 -33 18z"/>
<path d="M1732 2150 c0 -19 2 -27 5 -17 2 9 2 25 0 35 -3 9 -5 1 -5 -18z"/>
<path d="M1656 2028 c3 -5 10 -6 15 -3 13 9 11 12 -6 12 -8 0 -12 -4 -9 -9z"/>
<path d="M2991 1774 c0 -11 3 -14 6 -6 3 7 2 16 -1 19 -3 4 -6 -2 -5 -13z"/>
<path d="M2968 1660 c-28 -193 -38 -272 -38 -314 l0 -50 56 112 c30 61 55 114
55 116 0 3 11 18 24 32 14 15 25 33 25 40 0 7 6 15 13 17 9 4 9 6 0 6 -7 1
-17 -8 -23 -19 -6 -11 -16 -20 -23 -20 -7 0 -6 4 3 10 15 9 13 11 -12 14 -7 1
-12 10 -11 21 2 12 -8 28 -22 38 -25 18 -25 18 -26 -5 -1 -15 -4 -11 -8 12
l-7 35 -6 -45z"/>
<path d="M3010 1680 c0 -5 5 -10 11 -10 5 0 7 5 4 10 -3 6 -8 10 -11 10 -2 0
-4 -4 -4 -10z"/>
<path d="M3125 1669 c-11 -16 -1 -19 13 -3 7 8 8 14 3 14 -5 0 -13 -5 -16 -11z"/>
<path d="M3215 1520 c-3 -6 1 -7 9 -4 18 7 21 14 7 14 -6 0 -13 -4 -16 -10z"/>
<path d="M3195 1490 c-3 -5 -2 -10 4 -10 5 0 13 5 16 10 3 6 2 10 -4 10 -5 0
-13 -4 -16 -10z"/>
<path d="M3176 1462 c-3 -5 1 -9 9 -9 8 0 15 4 15 9 0 4 -4 8 -9 8 -6 0 -12
-4 -15 -8z"/>
<path d="M3322 1455 c-7 -8 -9 -15 -4 -15 5 0 15 7 22 15 16 19 -1 19 -18 0z"/>
<path d="M3131 1383 c-97 -179 -163 -357 -185 -498 l-6 -40 17 35 c82 175 120
248 173 329 51 79 59 97 47 105 -7 6 -12 20 -10 31 2 11 5 28 7 37 1 10 5 21
9 24 12 12 8 34 -7 34 -8 0 -28 -26 -45 -57z"/>
<path d="M3282 1415 c-7 -8 -9 -15 -4 -15 5 0 15 7 22 15 16 19 -1 19 -18 0z"/>
<path d="M3215 1350 c-10 -11 -22 -17 -26 -14 -5 3 -6 -2 -3 -10 7 -17 24 -22
24 -6 0 5 10 18 22 30 12 11 17 20 11 20 -5 0 -18 -9 -28 -20z"/>
</g>
</svg>
